<svg width="20" height="21" viewBox="0 0 20 21" fill="none" xmlns="http://www.w3.org/2000/svg">
<path d="M12.5 19.4584H7.49999C2.97499 19.4584 1.04166 17.5251 1.04166 13.0001V8.00008C1.04166 3.47508 2.97499 1.54175 7.49999 1.54175H12.5C17.025 1.54175 18.9583 3.47508 18.9583 8.00008V13.0001C18.9583 17.5251 17.025 19.4584 12.5 19.4584ZM7.49999 2.79175C3.65832 2.79175 2.29166 4.15841 2.29166 8.00008V13.0001C2.29166 16.8417 3.65832 18.2084 7.49999 18.2084H12.5C16.3417 18.2084 17.7083 16.8417 17.7083 13.0001V8.00008C17.7083 4.15841 16.3417 2.79175 12.5 2.79175H7.49999Z" fill="#B1BADB"/>
<path d="M11.5999 13.9417H7.49992C7.15825 13.9417 6.87492 13.6583 6.87492 13.3167C6.87492 12.975 7.15825 12.6917 7.49992 12.6917H11.5999C12.6666 12.6917 13.5416 11.825 13.5416 10.75C13.5416 9.67502 12.6749 8.80835 11.5999 8.80835H5.95825C5.61659 8.80835 5.33325 8.52502 5.33325 8.18335C5.33325 7.84168 5.61659 7.55835 5.95825 7.55835H11.5999C13.3582 7.55835 14.7916 8.99168 14.7916 10.75C14.7916 12.5084 13.3582 13.9417 11.5999 13.9417Z" fill="#B1BADB"/>
<path d="M7.14161 10.0999C6.98327 10.0999 6.82494 10.0416 6.69994 9.91661L5.39161 8.60827C5.14994 8.36661 5.14994 7.9666 5.39161 7.72493L6.69994 6.4166C6.94161 6.17493 7.34161 6.17493 7.58327 6.4166C7.82494 6.65827 7.82494 7.05827 7.58327 7.29994L6.7166 8.1666L7.58327 9.03327C7.82494 9.27493 7.82494 9.67494 7.58327 9.91661C7.46661 10.0333 7.30827 10.0999 7.14161 10.0999Z" fill="#B1BADB"/>
</svg>
