<svg width="20" height="21" viewBox="0 0 20 21" fill="none" xmlns="http://www.w3.org/2000/svg">
<path d="M7.49998 19.4584H12.5C17.025 19.4584 18.9583 17.5251 18.9583 13.0001V8.00008C18.9583 3.47508 17.025 1.54175 12.5 1.54175H7.49998C2.97498 1.54175 1.04165 3.47508 1.04165 8.00008V13.0001C1.04165 17.5251 2.97498 19.4584 7.49998 19.4584ZM12.5 2.79175C16.3416 2.79175 17.7083 4.15841 17.7083 8.00008V13.0001C17.7083 16.8417 16.3416 18.2084 12.5 18.2084H7.49998C3.65831 18.2084 2.29165 16.8417 2.29165 13.0001V8.00008C2.29165 4.15841 3.65831 2.79175 7.49998 2.79175H12.5Z" fill="#B1BADB"/>
<path d="M8.40008 13.9417H12.5001C12.8417 13.9417 13.1251 13.6583 13.1251 13.3167C13.1251 12.975 12.8417 12.6917 12.5001 12.6917H8.40008C7.33342 12.6917 6.45842 11.825 6.45842 10.75C6.45842 9.67502 7.32508 8.80835 8.40008 8.80835H14.0417C14.3834 8.80835 14.6667 8.52502 14.6667 8.18335C14.6667 7.84168 14.3834 7.55835 14.0417 7.55835H8.40008C6.64175 7.55835 5.20842 8.99168 5.20842 10.75C5.20842 12.5084 6.64175 13.9417 8.40008 13.9417Z" fill="#B1BADB"/>
<path d="M12.8584 10.0999C13.0167 10.0999 13.175 10.0416 13.3 9.91661L14.6084 8.60827C14.85 8.36661 14.85 7.9666 14.6084 7.72493L13.3 6.4166C13.0584 6.17493 12.6584 6.17493 12.4167 6.4166C12.175 6.65827 12.175 7.05827 12.4167 7.29994L13.2834 8.1666L12.4167 9.03327C12.175 9.27493 12.175 9.67494 12.4167 9.91661C12.5334 10.0333 12.6917 10.0999 12.8584 10.0999Z" fill="#B1BADB"/>
</svg>
