<svg width="16" height="16" viewBox="0 0 16 16" fill="none" xmlns="http://www.w3.org/2000/svg">
<path fill-rule="evenodd" clip-rule="evenodd" d="M8 5.75955C6.76288 5.75955 5.76 6.76243 5.76 7.99954C5.76 9.23666 6.76288 10.2395 8 10.2395C9.23711 10.2395 10.24 9.23666 10.24 7.99954C10.24 6.76243 9.23711 5.75955 8 5.75955ZM4.38857 7.99954C4.38857 6.00501 6.00546 4.38812 8 4.38812C9.99453 4.38812 11.6114 6.00501 11.6114 7.99954C11.6114 9.99408 9.99453 11.611 8 11.611C6.00546 11.611 4.38857 9.99408 4.38857 7.99954Z" fill="#387EF6"/>
<path fill-rule="evenodd" clip-rule="evenodd" d="M4.58188 0.766997C6.21435 -0.00446308 8.05979 -0.201001 9.81811 0.209341C11.5764 0.619683 13.1443 1.61277 14.2666 3.02713C15.389 4.44148 15.9999 6.19392 16 7.9995V8.73097C16 9.49479 15.6966 10.2273 15.1565 10.7674C14.6164 11.3075 13.8838 11.611 13.12 11.611C12.3562 11.611 11.6236 11.3075 11.0835 10.7674C10.5434 10.2273 10.24 9.49479 10.24 8.73097V5.07383C10.24 4.69512 10.547 4.38812 10.9257 4.38812C11.3044 4.38812 11.6114 4.69512 11.6114 5.07383V8.73097C11.6114 9.13107 11.7704 9.51478 12.0533 9.79769C12.3362 10.0806 12.7199 10.2395 13.12 10.2395C13.5201 10.2395 13.9038 10.0806 14.1867 9.79769C14.4696 9.51478 14.6286 9.13107 14.6286 8.73097V7.99959C14.6285 6.50355 14.1223 5.0515 13.1923 3.87962C12.2624 2.70772 10.9633 1.88488 9.50644 1.54488C8.04954 1.20489 6.52046 1.36773 5.16785 2.00694C3.81523 2.64615 2.71862 3.72413 2.05634 5.0656C1.39405 6.40707 1.20504 7.93313 1.52003 9.39564C1.83502 10.8581 2.63549 12.1711 3.79128 13.121C4.94707 14.0709 6.39021 14.6019 7.88604 14.6276C9.38187 14.6533 10.8424 14.1723 12.0302 13.2627C12.3308 13.0324 12.7612 13.0895 12.9915 13.3902C13.2218 13.6908 13.1647 14.1212 12.864 14.3515C11.4305 15.4493 9.66777 16.0299 7.86246 15.9988C6.05715 15.9678 4.31543 15.3269 2.92051 14.1805C1.52559 13.0341 0.559503 11.4495 0.179342 9.68439C-0.20082 7.91929 0.0273018 6.07749 0.826613 4.45848C1.62592 2.83947 2.94942 1.53846 4.58188 0.766997Z" fill="#387EF6"/>
</svg>
