<svg width="16" height="16" viewBox="0 0 16 16" fill="none" xmlns="http://www.w3.org/2000/svg">
<path d="M15.9809 12.7531C15.9809 13.1956 16.0273 13.6444 15.9727 14.0796C15.8032 15.4108 14.6974 16.1695 13.269 15.9678C9.6435 15.4571 6.54816 13.8925 4.04582 11.2302C1.82679 8.86961 0.505942 6.06198 0.042278 2.85091C-0.0925399 1.88777 0.070517 1.06547 0.890356 0.457603C1.18041 0.234845 1.52787 0.098734 1.89238 0.0650784C2.78724 -0.0216928 3.68842 -0.0216928 4.58327 0.0650784C5.70372 0.193194 6.39056 0.895558 6.55726 2.00953C6.64308 2.60509 6.78896 3.19048 6.99269 3.7568C7.32973 4.68723 7.14026 5.49227 6.44613 6.19009C5.97518 6.66167 5.977 6.66621 6.37235 7.20048C7.11376 8.1935 8.00597 9.06505 9.01678 9.78369C9.27093 9.96541 9.44492 9.96541 9.65443 9.72735C10.191 9.10313 10.8587 8.77421 11.7022 8.86507C11.9165 8.89348 12.1271 8.9456 12.3298 9.02045C12.855 9.20758 13.3971 9.3433 13.9486 9.42569C15.264 9.60741 16.0036 10.4697 16 11.7999V12.7531H15.9809ZM14.5434 12.6985C14.5434 12.3805 14.5434 12.0625 14.5434 11.7445C14.5434 11.1757 14.3658 10.9549 13.8147 10.8649C13.1059 10.7558 12.4092 10.5793 11.7341 10.3379C11.3898 10.2126 11.1147 10.2934 10.8669 10.5451C10.6191 10.7968 10.354 11.0603 10.0944 11.3147C9.73004 11.6782 9.4431 11.7163 8.9931 11.4528C7.13143 10.3754 5.58549 8.82994 4.50949 6.9706C4.27447 6.56717 4.31273 6.30549 4.64704 5.96203C4.90028 5.70125 5.15807 5.44502 5.41678 5.18879C5.69006 4.91621 5.79117 4.61 5.64633 4.2302C5.39446 3.54856 5.21553 2.84227 5.11253 2.1231C5.05605 1.75966 4.79279 1.49161 4.42568 1.48707C3.66323 1.4689 2.90078 1.46708 2.13833 1.48707C1.70473 1.49888 1.43418 1.81236 1.4442 2.25304C1.45208 2.51393 1.47918 2.77389 1.52528 3.03082C2.08003 6.28459 3.59218 9.02135 6.07265 11.1993C8.23976 13.1074 10.7785 14.2232 13.6525 14.5739C14.1526 14.6348 14.5252 14.3341 14.5407 13.828C14.5525 13.4509 14.5434 13.0729 14.5434 12.6985Z" fill="#387EF6"/>
</svg>
