<svg width="70" height="70" viewBox="0 0 70 70" fill="none" xmlns="http://www.w3.org/2000/svg">
<circle cx="35" cy="35" r="16" fill="#387EF6" stroke="#79AAFF" stroke-width="2"/>
<path opacity="0.3" fill-rule="evenodd" clip-rule="evenodd" d="M35 58.5C47.9787 58.5 58.5 47.9787 58.5 35C58.5 22.0213 47.9787 11.5 35 11.5C22.0213 11.5 11.5 22.0213 11.5 35C11.5 47.9787 22.0213 58.5 35 58.5ZM35 60C48.8071 60 60 48.8071 60 35C60 21.1929 48.8071 10 35 10C21.1929 10 10 21.1929 10 35C10 48.8071 21.1929 60 35 60Z" fill="#387EF6"/>
<path opacity="0.1" fill-rule="evenodd" clip-rule="evenodd" d="M35 68.5C53.5015 68.5 68.5 53.5015 68.5 35C68.5 16.4985 53.5015 1.5 35 1.5C16.4985 1.5 1.5 16.4985 1.5 35C1.5 53.5015 16.4985 68.5 35 68.5ZM35 70C54.33 70 70 54.33 70 35C70 15.67 54.33 0 35 0C15.67 0 0 15.67 0 35C0 54.33 15.67 70 35 70Z" fill="#387EF6"/>
<path d="M42.1833 32.2501C41.3166 28.3917 37.95 26.6667 35 26.6667C35 26.6667 35 26.6667 34.9916 26.6667C32.05 26.6667 28.6916 28.3917 27.8166 32.2417C26.8333 36.5417 29.4666 40.1834 31.85 42.4834C32.7333 43.3334 33.8666 43.7584 35 43.7584C36.1333 43.7584 37.2666 43.3334 38.1416 42.4834C40.525 40.1834 43.1583 36.5501 42.1833 32.2501ZM37.7333 32.9417L34.4 36.2751C34.275 36.4001 34.1166 36.4584 33.9583 36.4584C33.8 36.4584 33.6416 36.4001 33.5166 36.2751L32.2666 35.0251C32.025 34.7834 32.025 34.3834 32.2666 34.1417C32.5083 33.9001 32.9083 33.9001 33.15 34.1417L33.9583 34.9501L36.85 32.0584C37.0916 31.8167 37.4916 31.8167 37.7333 32.0584C37.975 32.3001 37.975 32.7001 37.7333 32.9417Z" fill="white"/>
</svg>
