<svg width="70" height="70" viewBox="0 0 70 70" fill="none" xmlns="http://www.w3.org/2000/svg">
<circle cx="35" cy="35" r="16" fill="#F8393E" stroke="#FF7D81" stroke-width="2"/>
<path d="M32.9718 26C30.7493 26 28.9425 27.8105 28.9425 30.0375C28.9425 32.222 30.6475 33.99 32.87 34.0665C32.9379 34.058 33.0057 34.058 33.0566 34.0665C33.0736 34.0665 33.0821 34.0665 33.099 34.0665C33.1075 34.0665 33.1075 34.0665 33.116 34.0665C35.2875 33.99 36.9926 32.222 37.001 30.0375C37.001 27.8105 35.1942 26 32.9718 26Z" fill="white"/>
<path d="M37.281 36.3275C34.9143 34.7465 31.0547 34.7465 28.6711 36.3275C27.5938 37.05 27 38.0275 27 39.073C27 40.1185 27.5938 41.0875 28.6626 41.8015C29.8502 42.6005 31.411 43 32.9718 43C34.5326 43 36.0934 42.6005 37.281 41.8015C38.3498 41.079 38.9436 40.11 38.9436 39.056C38.9351 38.0105 38.3498 37.0415 37.281 36.3275Z" fill="white"/>
<path d="M42.2942 30.539C42.4299 32.188 41.2593 33.633 39.6392 33.8285C39.6307 33.8285 39.6307 33.8285 39.6222 33.8285H39.5967C39.5458 33.8285 39.4949 33.8285 39.4525 33.8455C38.6297 33.888 37.8748 33.6245 37.3064 33.14C38.1801 32.358 38.6806 31.185 38.5788 29.91C38.5194 29.2215 38.2819 28.5925 37.9257 28.057C38.248 27.8955 38.6212 27.7935 39.003 27.7595C40.6656 27.615 42.15 28.856 42.2942 30.539Z" fill="white"/>
<path d="M43.9907 38.4015C43.9229 39.226 43.397 39.94 42.5148 40.4245C41.6665 40.892 40.5977 41.113 39.5374 41.0875C40.1481 40.535 40.5044 39.8465 40.5722 39.1155C40.6571 38.0615 40.1566 37.05 39.1556 36.2425C38.5873 35.792 37.9257 35.435 37.2046 35.1715C39.0793 34.6275 41.4375 34.993 42.888 36.166C43.6684 36.795 44.0671 37.5855 43.9907 38.4015Z" fill="white"/>
<path opacity="0.3" fill-rule="evenodd" clip-rule="evenodd" d="M35 58.5C47.9787 58.5 58.5 47.9787 58.5 35C58.5 22.0213 47.9787 11.5 35 11.5C22.0213 11.5 11.5 22.0213 11.5 35C11.5 47.9787 22.0213 58.5 35 58.5ZM35 60C48.8071 60 60 48.8071 60 35C60 21.1929 48.8071 10 35 10C21.1929 10 10 21.1929 10 35C10 48.8071 21.1929 60 35 60Z" fill="#F8393E"/>
<path opacity="0.1" fill-rule="evenodd" clip-rule="evenodd" d="M35 68.5C53.5015 68.5 68.5 53.5015 68.5 35C68.5 16.4985 53.5015 1.5 35 1.5C16.4985 1.5 1.5 16.4985 1.5 35C1.5 53.5015 16.4985 68.5 35 68.5ZM35 70C54.33 70 70 54.33 70 35C70 15.67 54.33 0 35 0C15.67 0 0 15.67 0 35C0 54.33 15.67 70 35 70Z" fill="#F8393E"/>
</svg>
