<svg width="157" height="91" viewBox="0 0 157 91" fill="none" xmlns="http://www.w3.org/2000/svg">
<path d="M100.247 23.45L96.1867 22.0967C95.9107 21.2573 95.5754 20.4386 95.1834 19.6467L97.1667 15.8433C97.3826 15.4059 97.4559 14.9117 97.3764 14.4304C97.2969 13.9491 97.0685 13.5048 96.7234 13.16L93.34 9.84667C93.0035 9.48996 92.5631 9.24838 92.0814 9.15623C91.5997 9.06408 91.1012 9.12605 90.6567 9.33334L86.8534 11.2467C86.0615 10.8547 85.2428 10.5194 84.4034 10.2433L83.1667 6.25334C83.0044 5.77038 82.6884 5.35384 82.2671 5.06734C81.8457 4.78083 81.3422 4.64011 80.8334 4.66667H76.1667C75.6775 4.66541 75.2003 4.81792 74.8026 5.10264C74.4048 5.38736 74.1066 5.78989 73.95 6.25334L72.5967 10.3133C71.7573 10.5894 70.9386 10.9247 70.1467 11.3167L66.3434 9.33334C65.9059 9.11745 65.4118 9.04411 64.9304 9.12363C64.4491 9.20315 64.0048 9.43154 63.66 9.77667L60.3467 13.16C59.99 13.4966 59.7484 13.937 59.6563 14.4187C59.5641 14.9004 59.6261 15.3989 59.8334 15.8433L61.7467 19.6467C61.3547 20.4386 61.0194 21.2573 60.7434 22.0967L56.6834 23.45C56.233 23.6182 55.8456 23.9215 55.5741 24.3182C55.3026 24.715 55.1604 25.186 55.1667 25.6667V30.3333C55.1654 30.8225 55.318 31.2997 55.6027 31.6975C55.8874 32.0952 56.2899 32.3935 56.7534 32.55L60.8134 33.9033C61.0894 34.7427 61.4247 35.5614 61.8167 36.3533L59.8334 40.1567C59.6175 40.5941 59.5441 41.0883 59.6237 41.5696C59.7032 42.0509 59.9316 42.4952 60.2767 42.84L63.59 46.1533C63.9316 46.5253 64.3846 46.7765 64.8811 46.8691C65.3776 46.9616 65.8907 46.8906 66.3434 46.6667L70.1467 44.7533C70.9386 45.1454 71.7573 45.4806 72.5967 45.7567L73.95 49.8167C74.1183 50.267 74.4215 50.6544 74.8183 50.9259C75.215 51.1974 75.686 51.3397 76.1667 51.3333H80.8334C81.3225 51.3346 81.7997 51.1821 82.1975 50.8974C82.5953 50.6127 82.8935 50.2101 83.05 49.7467L84.4034 45.6867C85.2428 45.4106 86.0615 45.0753 86.8534 44.6833L90.6567 46.5967C91.0942 46.8126 91.5883 46.8859 92.0696 46.8064C92.551 46.7269 92.9953 46.4985 93.34 46.1533L96.6534 42.84C97.0101 42.5034 97.2517 42.063 97.3438 41.5813C97.436 41.0996 97.374 40.6011 97.1667 40.1567L95.2534 36.3533C95.6454 35.5614 95.9807 34.7427 96.2567 33.9033L100.247 32.6667C100.73 32.5043 101.146 32.1883 101.433 31.767C101.719 31.3457 101.86 30.8422 101.833 30.3333V25.6667C101.835 25.1775 101.682 24.7003 101.397 24.3025C101.113 23.9048 100.71 23.6065 100.247 23.45Z" fill="#DFE2F1"/>
<path d="M72.0386 20.8205C72.0386 20.424 72.36 20.1026 72.7565 20.1026H86.3975C86.7941 20.1026 87.1155 20.424 87.1155 20.8205V34.4615C87.1155 34.8581 86.7941 35.1795 86.3975 35.1795H72.7565C72.36 35.1795 72.0386 34.8581 72.0386 34.4615V20.8205Z" fill="white"/>
<path fill-rule="evenodd" clip-rule="evenodd" d="M73.4745 21.5385V33.7436H85.6796V21.5385H73.4745ZM72.7565 20.1026C72.36 20.1026 72.0386 20.424 72.0386 20.8205V34.4615C72.0386 34.8581 72.36 35.1795 72.7565 35.1795H86.3975C86.7941 35.1795 87.1155 34.8581 87.1155 34.4615V20.8205C87.1155 20.424 86.7941 20.1026 86.3975 20.1026H72.7565Z" fill="#DFE2F1"/>
<path d="M64.859 26.5641C64.859 26.1676 65.1804 25.8462 65.577 25.8462H76.3462C76.7427 25.8462 77.0641 26.1676 77.0641 26.5641V36.6154C77.0641 37.0119 76.7427 37.3333 76.3462 37.3333H65.577C65.1804 37.3333 64.859 37.0119 64.859 36.6154V26.5641Z" fill="white"/>
<path fill-rule="evenodd" clip-rule="evenodd" d="M66.2949 27.2821V35.8974H75.6282V27.2821H66.2949ZM65.577 25.8462C65.1804 25.8462 64.859 26.1676 64.859 26.5641V36.6154C64.859 37.0119 65.1804 37.3333 65.577 37.3333H76.3462C76.7427 37.3333 77.0641 37.0119 77.0641 36.6154V26.5641C77.0641 26.1676 76.7427 25.8462 76.3462 25.8462H65.577Z" fill="#DFE2F1"/>
<path d="M83.5256 29.4359C83.5256 29.0394 83.8471 28.718 84.2436 28.718H91.4231C91.8196 28.718 92.141 29.0394 92.141 29.4359V36.6154C92.141 37.0119 91.8196 37.3333 91.4231 37.3333H84.2436C83.8471 37.3333 83.5256 37.0119 83.5256 36.6154V29.4359Z" fill="white"/>
<path fill-rule="evenodd" clip-rule="evenodd" d="M84.9615 30.1539V35.8974H90.7051V30.1539H84.9615ZM84.2436 28.718C83.8471 28.718 83.5256 29.0394 83.5256 29.4359V36.6154C83.5256 37.0119 83.8471 37.3333 84.2436 37.3333H91.4231C91.8196 37.3333 92.141 37.0119 92.141 36.6154V29.4359C92.141 29.0394 91.8196 28.718 91.4231 28.718H84.2436Z" fill="#DFE2F1"/>
<path d="M9.1284 76.0211L9.11393 70.814L6.50995 75.0526H5.23689L2.63291 70.9263V76.0211H0V66.1965H2.35805L5.91682 71.8667L9.3888 66.1965H11.7468L11.7758 76.0211H9.1284Z" fill="#C7CBDF"/>
<path d="M20.9171 74.1123H16.635L15.8393 76.0211H12.9171L17.3872 66.1965H20.2082L24.6928 76.0211H21.7127L20.9171 74.1123ZM20.078 72.0632L18.776 68.9193L17.474 72.0632H20.078Z" fill="#C7CBDF"/>
<path d="M30.6451 76.2175C29.5843 76.2175 28.6295 76.0023 27.7808 75.5719C26.9417 75.1322 26.2811 74.524 25.7988 73.7474C25.3166 72.9708 25.0755 72.0912 25.0755 71.1088C25.0755 70.1263 25.3166 69.2468 25.7988 68.4702C26.2811 67.6936 26.9417 67.0901 27.7808 66.6596C28.6295 66.2199 29.5843 66 30.6451 66C31.571 66 32.4052 66.1591 33.1479 66.4772C33.8905 66.7953 34.5077 67.2538 34.9996 67.8526L33.1768 69.4526C32.521 68.6854 31.7253 68.3018 30.7898 68.3018C30.2401 68.3018 29.7482 68.4187 29.3142 68.6526C28.8899 68.8866 28.5571 69.2187 28.316 69.6491C28.0846 70.0702 27.9688 70.5567 27.9688 71.1088C27.9688 71.6608 28.0846 72.152 28.316 72.5825C28.5571 73.0035 28.8899 73.331 29.3142 73.5649C29.7482 73.7988 30.2401 73.9158 30.7898 73.9158C31.7253 73.9158 32.521 73.5322 33.1768 72.7649L34.9996 74.3649C34.5077 74.9637 33.8905 75.4222 33.1479 75.7404C32.4052 76.0585 31.571 76.2175 30.6451 76.2175Z" fill="#C7CBDF"/>
<path d="M44.3679 68.4H41.2721V76.0211H38.4511V68.4H35.3408V66.1965H44.3679V68.4Z" fill="#C7CBDF"/>
<path d="M53.8185 73.8737V76.0211H45.6883V66.1965H53.6305V68.3439H48.5238V70H53.0229V72.0772H48.5238V73.8737H53.8185Z" fill="#C7CBDF"/>
<path d="M60.0797 66.1965C60.9959 66.1965 61.7916 66.3462 62.4667 66.6456C63.1418 66.9357 63.6626 67.3567 64.0291 67.9088C64.3956 68.4515 64.5788 69.0924 64.5788 69.8316C64.5788 70.5708 64.3956 71.2117 64.0291 71.7544C63.6626 72.2971 63.1418 72.7181 62.4667 73.0175C61.7916 73.3076 60.9959 73.4526 60.0797 73.4526H58.3148V76.0211H55.4504V66.1965H60.0797ZM59.9061 71.2632C60.4944 71.2632 60.9381 71.1415 61.237 70.8982C61.536 70.6456 61.6855 70.2901 61.6855 69.8316C61.6855 69.3731 61.536 69.0175 61.237 68.7649C60.9381 68.5123 60.4944 68.386 59.9061 68.386H58.3148V71.2632H59.9061Z" fill="#C7CBDF"/>
<path d="M81.1066 73.8175V78H78.4882V76.0211H72.0072V78H69.3743V73.8175H69.7359C70.3339 73.8082 70.7534 73.4105 70.9945 72.6246C71.2453 71.8386 71.3996 70.7064 71.4574 69.2281L71.5732 66.1965H79.7323V73.8175H81.1066ZM73.9602 69.4667C73.9216 70.5146 73.8348 71.4035 73.6998 72.1333C73.5647 72.8632 73.3574 73.4246 73.0777 73.8175H76.9113V68.4H74.0036L73.9602 69.4667Z" fill="#C7CBDF"/>
<path d="M87.4528 76.2175C86.3823 76.2175 85.4179 75.9977 84.5595 75.5579C83.7108 75.1181 83.0405 74.5099 82.5487 73.7333C82.0664 72.9567 81.8253 72.0819 81.8253 71.1088C81.8253 70.1357 82.0664 69.2608 82.5487 68.4842C83.0405 67.7076 83.7108 67.0994 84.5595 66.6596C85.4179 66.2199 86.3823 66 87.4528 66C88.5234 66 89.483 66.2199 90.3317 66.6596C91.19 67.0994 91.8603 67.7076 92.3425 68.4842C92.8344 69.2608 93.0803 70.1357 93.0803 71.1088C93.0803 72.0819 92.8344 72.9567 92.3425 73.7333C91.8603 74.5099 91.19 75.1181 90.3317 75.5579C89.483 75.9977 88.5234 76.2175 87.4528 76.2175ZM87.4528 73.9158C87.964 73.9158 88.4269 73.7988 88.8416 73.5649C89.2563 73.331 89.5842 73.0035 89.8253 72.5825C90.0665 72.152 90.187 71.6608 90.187 71.1088C90.187 70.5567 90.0665 70.0702 89.8253 69.6491C89.5842 69.2187 89.2563 68.8866 88.8416 68.6526C88.4269 68.4187 87.964 68.3018 87.4528 68.3018C86.9417 68.3018 86.4787 68.4187 86.064 68.6526C85.6493 68.8866 85.3214 69.2187 85.0803 69.6491C84.8392 70.0702 84.7186 70.5567 84.7186 71.1088C84.7186 71.6608 84.8392 72.152 85.0803 72.5825C85.3214 73.0035 85.6493 73.331 86.064 73.5649C86.4787 73.7988 86.9417 73.9158 87.4528 73.9158Z" fill="#C7CBDF"/>
<path d="M99.545 76.2175C98.4841 76.2175 97.5293 76.0023 96.6806 75.5719C95.8415 75.1322 95.1809 74.524 94.6986 73.7474C94.2164 72.9708 93.9753 72.0912 93.9753 71.1088C93.9753 70.1263 94.2164 69.2468 94.6986 68.4702C95.1809 67.6936 95.8415 67.0901 96.6806 66.6596C97.5293 66.2199 98.4841 66 99.545 66C100.471 66 101.305 66.1591 102.048 66.4772C102.79 66.7953 103.408 67.2538 103.899 67.8526L102.077 69.4526C101.421 68.6854 100.625 68.3018 99.6896 68.3018C99.1399 68.3018 98.648 68.4187 98.214 68.6526C97.7897 68.8866 97.4569 69.2187 97.2158 69.6491C96.9844 70.0702 96.8686 70.5567 96.8686 71.1088C96.8686 71.6608 96.9844 72.152 97.2158 72.5825C97.4569 73.0035 97.7897 73.331 98.214 73.5649C98.648 73.7988 99.1399 73.9158 99.6896 73.9158C100.625 73.9158 101.421 73.5322 102.077 72.7649L103.899 74.3649C103.408 74.9637 102.79 75.4222 102.048 75.7404C101.305 76.0585 100.471 76.2175 99.545 76.2175Z" fill="#C7CBDF"/>
<path d="M113.268 68.4H110.172V76.0211H107.351V68.4H104.241V66.1965H113.268V68.4Z" fill="#C7CBDF"/>
<path d="M121.067 74.1123H116.785L115.989 76.0211H113.067L117.537 66.1965H120.358L124.843 76.0211H121.863L121.067 74.1123ZM120.228 72.0632L118.926 68.9193L117.624 72.0632H120.228Z" fill="#C7CBDF"/>
<path d="M133.381 70.8842C133.979 71.0713 134.432 71.3614 134.741 71.7544C135.059 72.1474 135.218 72.6339 135.218 73.214C135.218 74.0842 134.866 74.7719 134.162 75.2772C133.468 75.7731 132.479 76.0211 131.197 76.0211H126.003V66.1965H130.922C132.137 66.1965 133.077 66.4211 133.743 66.8702C134.418 67.3099 134.755 67.9368 134.755 68.7509C134.755 69.2281 134.635 69.6491 134.394 70.014C134.162 70.3789 133.825 70.669 133.381 70.8842ZM128.824 70.1263H130.647C131.457 70.1263 131.862 69.8035 131.862 69.1579C131.862 68.5123 131.457 68.1895 130.647 68.1895H128.824V70.1263ZM131.081 74.0281C131.91 74.0281 132.325 73.6866 132.325 73.0035C132.325 72.3392 131.91 72.007 131.081 72.007H128.824V74.0281H131.081Z" fill="#C7CBDF"/>
<path d="M140.862 72.2596H139.56V76.0211H136.71V66.1965H139.56V70.014H140.935L143.351 66.1965H146.36L143.191 70.9404L146.389 76.0211H143.163L140.862 72.2596Z" fill="#C7CBDF"/>
<path d="M147.307 66.1965H150.128V71.9649L154.309 66.1965H157V76.0211H154.179V70.2667L150.013 76.0211H147.307V66.1965Z" fill="#C7CBDF"/>
<path d="M56.0872 90.932L56.0755 85.153L53.1178 89.9688H52.58L49.6223 85.187V90.932H48.5V83H49.4586L52.8723 88.5751L56.2392 83H57.1978L57.2095 90.932H56.0872Z" fill="#C7CBDF"/>
<path d="M61.758 84.8697C62.6153 84.8697 63.27 85.0737 63.722 85.4816C64.1819 85.8895 64.4118 86.4976 64.4118 87.3059V90.932H63.3479V90.1388C63.1609 90.4183 62.892 90.6336 62.5413 90.7847C62.1984 90.9282 61.7892 91 61.3138 91C60.6201 91 60.0629 90.8376 59.642 90.5127C59.229 90.1879 59.0224 89.7611 59.0224 89.2323C59.0224 88.7035 59.2212 88.2805 59.6186 87.9632C60.0161 87.6383 60.6474 87.4759 61.5125 87.4759H63.2895V87.2606C63.2895 86.7923 63.1492 86.4334 62.8686 86.1841C62.588 85.9348 62.175 85.8102 61.6294 85.8102C61.2631 85.8102 60.9046 85.8706 60.5539 85.9915C60.2032 86.1048 59.907 86.2597 59.6654 86.4561L59.1978 85.6402C59.5173 85.3909 59.8992 85.2021 60.3435 85.0737C60.7877 84.9377 61.2592 84.8697 61.758 84.8697ZM61.5008 90.1615C61.9295 90.1615 62.2997 90.0708 62.6114 89.8895C62.9232 89.7007 63.1492 89.4363 63.2895 89.0963V88.2578H61.5593C60.6084 88.2578 60.133 88.5675 60.133 89.187C60.133 89.4891 60.2538 89.7271 60.4954 89.9009C60.737 90.0746 61.0722 90.1615 61.5008 90.1615Z" fill="#C7CBDF"/>
<path d="M68.2656 91C67.759 91 67.2719 90.9358 66.8043 90.8074C66.3367 90.6714 65.9704 90.5014 65.7054 90.2975L66.173 89.4363C66.4458 89.6251 66.777 89.7762 67.1667 89.8895C67.5564 90.0028 67.95 90.0595 68.3475 90.0595C69.3295 90.0595 69.8205 89.7875 69.8205 89.2436C69.8205 89.0623 69.7542 88.9188 69.6217 88.813C69.4893 88.7073 69.3217 88.6317 69.1191 88.5864C68.9242 88.5335 68.6436 88.4769 68.2773 88.4164C67.7785 88.3409 67.3694 88.254 67.0498 88.1558C66.7381 88.0576 66.4692 87.8914 66.2432 87.6572C66.0172 87.423 65.9041 87.0944 65.9041 86.6714C65.9041 86.1275 66.138 85.6931 66.6056 85.3683C67.0732 85.0359 67.7006 84.8697 68.4878 84.8697C68.9008 84.8697 69.3139 84.9188 69.727 85.017C70.14 85.1152 70.4791 85.2474 70.744 85.4136L70.2647 86.2748C69.7581 85.9575 69.1619 85.7989 68.4761 85.7989C68.0007 85.7989 67.6382 85.8744 67.3888 86.0255C67.1394 86.1766 67.0147 86.3768 67.0147 86.6261C67.0147 86.8225 67.0849 86.9773 67.2252 87.0907C67.3655 87.204 67.5369 87.2871 67.7396 87.3399C67.95 87.3928 68.2423 87.4533 68.6164 87.5212C69.1152 87.6043 69.5165 87.695 69.8205 87.7932C70.1322 87.8839 70.3972 88.0425 70.6154 88.2691C70.8337 88.4958 70.9428 88.813 70.9428 89.221C70.9428 89.7649 70.7012 90.1992 70.218 90.5241C69.7425 90.8414 69.0918 91 68.2656 91Z" fill="#C7CBDF"/>
<path d="M72.509 83H75.9578C76.8229 83 77.5905 83.1662 78.2608 83.4986C78.9311 83.831 79.4493 84.2993 79.8156 84.9037C80.1897 85.5005 80.3768 86.1879 80.3768 86.966C80.3768 87.7441 80.1897 88.4353 79.8156 89.0397C79.4493 89.6365 78.9311 90.101 78.2608 90.4334C77.5905 90.7658 76.8229 90.932 75.9578 90.932H72.509V83ZM75.8876 89.9462C76.5501 89.9462 77.1307 89.8215 77.6295 89.5722C78.1361 89.3229 78.5258 88.9754 78.7986 88.5297C79.0713 88.0765 79.2077 87.5552 79.2077 86.966C79.2077 86.3768 79.0713 85.8593 78.7986 85.4136C78.5258 84.9603 78.1361 84.6091 77.6295 84.3598C77.1307 84.1105 76.5501 83.9858 75.8876 83.9858H73.6781V89.9462H75.8876Z" fill="#C7CBDF"/>
<path d="M84.6575 91C84.0418 91 83.4885 90.8678 82.9975 90.6034C82.5065 90.339 82.1207 89.9764 81.8401 89.5156C81.5673 89.0472 81.431 88.5184 81.431 87.9292C81.431 87.3399 81.5673 86.8149 81.8401 86.3541C82.1207 85.8857 82.5065 85.5231 82.9975 85.2663C83.4885 85.0019 84.0418 84.8697 84.6575 84.8697C85.2733 84.8697 85.8227 85.0019 86.3059 85.2663C86.7969 85.5231 87.1788 85.8857 87.4516 86.3541C87.7322 86.8149 87.8725 87.3399 87.8725 87.9292C87.8725 88.5184 87.7322 89.0472 87.4516 89.5156C87.1788 89.9764 86.7969 90.339 86.3059 90.6034C85.8227 90.8678 85.2733 91 84.6575 91ZM84.6575 90.0482C85.055 90.0482 85.4096 89.9613 85.7214 89.7875C86.0409 89.6062 86.2903 89.3569 86.4696 89.0397C86.6488 88.7148 86.7385 88.3447 86.7385 87.9292C86.7385 87.5137 86.6488 87.1473 86.4696 86.83C86.2903 86.5052 86.0409 86.2559 85.7214 86.0822C85.4096 85.9084 85.055 85.8215 84.6575 85.8215C84.2601 85.8215 83.9016 85.9084 83.582 86.0822C83.2703 86.2559 83.0209 86.5052 82.8338 86.83C82.6546 87.1473 82.5649 87.5137 82.5649 87.9292C82.5649 88.3447 82.6546 88.7148 82.8338 89.0397C83.0209 89.3569 83.2703 89.6062 83.582 89.7875C83.9016 89.9613 84.2601 90.0482 84.6575 90.0482Z" fill="#C7CBDF"/>
<path d="M91.2015 91C90.6949 91 90.2078 90.9358 89.7402 90.8074C89.2726 90.6714 88.9063 90.5014 88.6413 90.2975L89.1089 89.4363C89.3817 89.6251 89.7129 89.7762 90.1026 89.8895C90.4923 90.0028 90.8859 90.0595 91.2834 90.0595C92.2654 90.0595 92.7564 89.7875 92.7564 89.2436C92.7564 89.0623 92.6901 88.9188 92.5576 88.813C92.4251 88.7073 92.2576 88.6317 92.0549 88.5864C91.8601 88.5335 91.5795 88.4769 91.2132 88.4164C90.7144 88.3409 90.3052 88.254 89.9857 88.1558C89.674 88.0576 89.4051 87.8914 89.1791 87.6572C88.953 87.423 88.84 87.0944 88.84 86.6714C88.84 86.1275 89.0738 85.6931 89.5415 85.3683C90.0091 85.0359 90.6365 84.8697 91.4236 84.8697C91.8367 84.8697 92.2498 84.9188 92.6628 85.017C93.0759 85.1152 93.4149 85.2474 93.6799 85.4136L93.2006 86.2748C92.694 85.9575 92.0978 85.7989 91.412 85.7989C90.9365 85.7989 90.5741 85.8744 90.3247 86.0255C90.0753 86.1766 89.9506 86.3768 89.9506 86.6261C89.9506 86.8225 90.0208 86.9773 90.1611 87.0907C90.3013 87.204 90.4728 87.2871 90.6754 87.3399C90.8859 87.3928 91.1781 87.4533 91.5522 87.5212C92.051 87.6043 92.4524 87.695 92.7564 87.7932C93.0681 87.8839 93.3331 88.0425 93.5513 88.2691C93.7696 88.4958 93.8787 88.813 93.8787 89.221C93.8787 89.7649 93.6371 90.1992 93.1539 90.5241C92.6784 90.8414 92.0277 91 91.2015 91Z" fill="#C7CBDF"/>
<path d="M95.5501 91C95.3319 91 95.1449 90.9282 94.989 90.7847C94.8331 90.6336 94.7552 90.4448 94.7552 90.2181C94.7552 89.9991 94.8331 89.8178 94.989 89.6742C95.1449 89.5231 95.3319 89.4476 95.5501 89.4476C95.7684 89.4476 95.9515 89.5194 96.0996 89.6629C96.2477 89.8064 96.3217 89.9915 96.3217 90.2181C96.3217 90.4448 96.2438 90.6336 96.0879 90.7847C95.9398 90.9282 95.7606 91 95.5501 91Z" fill="#C7CBDF"/>
<path d="M99.0054 85.9348C99.2003 85.5873 99.4886 85.3229 99.8705 85.1416C100.252 84.9603 100.716 84.8697 101.262 84.8697V85.9235C101.199 85.916 101.114 85.9122 101.005 85.9122C100.397 85.9122 99.9173 86.0897 99.5666 86.4448C99.2237 86.7923 99.0522 87.2908 99.0522 87.9405V90.932H97.9299V84.9263H99.0054V85.9348Z" fill="#C7CBDF"/>
<path d="M108.5 84.9263V90.932H107.436V90.0255C107.21 90.3352 106.91 90.577 106.536 90.7507C106.17 90.9169 105.768 91 105.332 91C104.506 91 103.855 90.7809 103.38 90.3428C102.904 89.8971 102.666 89.2436 102.666 88.3824V84.9263H103.789V88.2578C103.789 88.8395 103.933 89.2814 104.221 89.5836C104.51 89.8782 104.923 90.0255 105.46 90.0255C106.053 90.0255 106.52 89.8517 106.863 89.5043C107.206 89.1568 107.378 88.6657 107.378 88.0312V84.9263H108.5Z" fill="#C7CBDF"/>
</svg>
