<svg width="223" height="56" viewBox="0 0 223 56" fill="none" xmlns="http://www.w3.org/2000/svg">
<path d="M49.7467 23.45L45.6867 22.0967C45.4106 21.2573 45.0753 20.4385 44.6833 19.6467L46.6667 15.8433C46.8826 15.4058 46.9559 14.9117 46.8764 14.4304C46.7969 13.9491 46.5685 13.5048 46.2233 13.16L42.84 9.84666C42.5034 9.48995 42.063 9.24836 41.5813 9.15621C41.0996 9.06406 40.6011 9.12603 40.1567 9.33332L36.3533 11.2467C35.5614 10.8546 34.7427 10.5194 33.9033 10.2433L32.6667 6.25332C32.5043 5.77037 32.1883 5.35383 31.767 5.06732C31.3457 4.78082 30.8422 4.6401 30.3333 4.66666H25.6667C25.1775 4.66539 24.7003 4.8179 24.3025 5.10262C23.9048 5.38734 23.6065 5.78987 23.45 6.25332L22.0967 10.3133C21.2573 10.5894 20.4386 10.9246 19.6467 11.3167L15.8433 9.33332C15.4059 9.11743 14.9117 9.04409 14.4304 9.12362C13.9491 9.20314 13.5048 9.43152 13.16 9.77666L9.84667 13.16C9.48996 13.4966 9.24837 13.937 9.15622 14.4187C9.06407 14.9004 9.12604 15.3989 9.33333 15.8433L11.2467 19.6467C10.8547 20.4385 10.5194 21.2573 10.2433 22.0967L6.18333 23.45C5.73297 23.6182 5.34556 23.9214 5.07408 24.3182C4.8026 24.715 4.66031 25.1859 4.66667 25.6667V30.3333C4.6654 30.8225 4.81791 31.2997 5.10263 31.6975C5.38735 32.0952 5.78988 32.3935 6.25333 32.55L10.3133 33.9033C10.5894 34.7427 10.9247 35.5614 11.3167 36.3533L9.33333 40.1567C9.11744 40.5941 9.0441 41.0883 9.12363 41.5696C9.20315 42.0509 9.43153 42.4952 9.77667 42.84L13.09 46.1533C13.4316 46.5253 13.8846 46.7765 14.3811 46.869C14.8776 46.9616 15.3907 46.8906 15.8433 46.6667L19.6467 44.7533C20.4386 45.1453 21.2573 45.4806 22.0967 45.7567L23.45 49.8167C23.6182 50.267 23.9215 50.6544 24.3182 50.9259C24.715 51.1974 25.186 51.3397 25.6667 51.3333H30.3333C30.8225 51.3346 31.2997 51.1821 31.6975 50.8974C32.0952 50.6126 32.3935 50.2101 32.55 49.7467L33.9033 45.6867C34.7427 45.4106 35.5614 45.0753 36.3533 44.6833L40.1567 46.5967C40.5941 46.8125 41.0883 46.8859 41.5696 46.8064C42.0509 46.7268 42.4952 46.4985 42.84 46.1533L46.1533 42.84C46.51 42.5034 46.7516 42.063 46.8438 41.5813C46.9359 41.0996 46.874 40.6011 46.6667 40.1567L44.7533 36.3533C45.1453 35.5614 45.4806 34.7427 45.7567 33.9033L49.7467 32.6667C50.2296 32.5043 50.6462 32.1883 50.9327 31.767C51.2192 31.3457 51.3599 30.8421 51.3333 30.3333V25.6667C51.3346 25.1775 51.1821 24.7003 50.8974 24.3025C50.6127 23.9048 50.2101 23.6065 49.7467 23.45Z" fill="#DFE2F1"/>
<path d="M21.5385 20.8205C21.5385 20.424 21.8599 20.1026 22.2564 20.1026H35.8974C36.2939 20.1026 36.6154 20.424 36.6154 20.8205V34.4615C36.6154 34.8581 36.2939 35.1795 35.8974 35.1795H22.2564C21.8599 35.1795 21.5385 34.8581 21.5385 34.4615V20.8205Z" fill="white"/>
<path fill-rule="evenodd" clip-rule="evenodd" d="M22.9744 21.5385V33.7436H35.1795V21.5385H22.9744ZM22.2564 20.1026C21.8599 20.1026 21.5385 20.424 21.5385 20.8205V34.4615C21.5385 34.8581 21.8599 35.1795 22.2564 35.1795H35.8974C36.2939 35.1795 36.6154 34.8581 36.6154 34.4615V20.8205C36.6154 20.424 36.2939 20.1026 35.8974 20.1026H22.2564Z" fill="#DFE2F1"/>
<path d="M14.359 26.5641C14.359 26.1676 14.6804 25.8462 15.0769 25.8462H25.8462C26.2427 25.8462 26.5641 26.1676 26.5641 26.5641V36.6154C26.5641 37.0119 26.2427 37.3333 25.8462 37.3333H15.0769C14.6804 37.3333 14.359 37.0119 14.359 36.6154V26.5641Z" fill="white"/>
<path fill-rule="evenodd" clip-rule="evenodd" d="M15.7949 27.2821V35.8974H25.1282V27.2821H15.7949ZM15.0769 25.8462C14.6804 25.8462 14.359 26.1676 14.359 26.5641V36.6154C14.359 37.0119 14.6804 37.3333 15.0769 37.3333H25.8462C26.2427 37.3333 26.5641 37.0119 26.5641 36.6154V26.5641C26.5641 26.1676 26.2427 25.8462 25.8462 25.8462H15.0769Z" fill="#DFE2F1"/>
<path d="M33.0256 29.4359C33.0256 29.0394 33.3471 28.718 33.7436 28.718H40.9231C41.3196 28.718 41.641 29.0394 41.641 29.4359V36.6154C41.641 37.0119 41.3196 37.3333 40.9231 37.3333H33.7436C33.3471 37.3333 33.0256 37.0119 33.0256 36.6154V29.4359Z" fill="white"/>
<path fill-rule="evenodd" clip-rule="evenodd" d="M34.4615 30.1539V35.8974H40.2051V30.1539H34.4615ZM33.7436 28.718C33.3471 28.718 33.0256 29.0394 33.0256 29.4359V36.6154C33.0256 37.0119 33.3471 37.3333 33.7436 37.3333H40.9231C41.3196 37.3333 41.641 37.0119 41.641 36.6154V29.4359C41.641 29.0394 41.3196 28.718 40.9231 28.718H33.7436Z" fill="#DFE2F1"/>
<path d="M75.1284 25.5211L75.1139 20.314L72.51 24.5526H71.2369L68.6329 20.4263V25.5211H66V15.6965H68.358L71.9168 21.3667L75.3888 15.6965H77.7468L77.7758 25.5211H75.1284Z" fill="#C7CBDF"/>
<path d="M86.9171 23.6123H82.635L81.8393 25.5211H78.9171L83.3872 15.6965H86.2082L90.6928 25.5211H87.7127L86.9171 23.6123ZM86.078 21.5632L84.776 18.4193L83.474 21.5632H86.078Z" fill="#C7CBDF"/>
<path d="M96.6451 25.7175C95.5843 25.7175 94.6295 25.5023 93.7808 25.0719C92.9417 24.6322 92.2811 24.024 91.7988 23.2474C91.3166 22.4708 91.0755 21.5912 91.0755 20.6088C91.0755 19.6263 91.3166 18.7468 91.7988 17.9702C92.2811 17.1936 92.9417 16.5901 93.7808 16.1596C94.6295 15.7199 95.5843 15.5 96.6451 15.5C97.571 15.5 98.4052 15.6591 99.1479 15.9772C99.8905 16.2953 100.508 16.7538 101 17.3526L99.1768 18.9526C98.521 18.1854 97.7253 17.8018 96.7898 17.8018C96.2401 17.8018 95.7482 17.9187 95.3142 18.1526C94.8899 18.3866 94.5571 18.7187 94.316 19.1491C94.0846 19.5702 93.9688 20.0567 93.9688 20.6088C93.9688 21.1608 94.0846 21.652 94.316 22.0825C94.5571 22.5035 94.8899 22.831 95.3142 23.0649C95.7482 23.2988 96.2401 23.4158 96.7898 23.4158C97.7253 23.4158 98.521 23.0322 99.1768 22.2649L101 23.8649C100.508 24.4637 99.8905 24.9222 99.1479 25.2404C98.4052 25.5585 97.571 25.7175 96.6451 25.7175Z" fill="#C7CBDF"/>
<path d="M110.368 17.9H107.272V25.5211H104.451V17.9H101.341V15.6965H110.368V17.9Z" fill="#C7CBDF"/>
<path d="M119.819 23.3737V25.5211H111.688V15.6965H119.63V17.8439H114.524V19.5H119.023V21.5772H114.524V23.3737H119.819Z" fill="#C7CBDF"/>
<path d="M126.08 15.6965C126.996 15.6965 127.792 15.8462 128.467 16.1456C129.142 16.4357 129.663 16.8567 130.029 17.4088C130.396 17.9515 130.579 18.5924 130.579 19.3316C130.579 20.0708 130.396 20.7117 130.029 21.2544C129.663 21.7971 129.142 22.2181 128.467 22.5175C127.792 22.8076 126.996 22.9526 126.08 22.9526H124.315V25.5211H121.45V15.6965H126.08ZM125.906 20.7632C126.494 20.7632 126.938 20.6415 127.237 20.3982C127.536 20.1456 127.686 19.7901 127.686 19.3316C127.686 18.8731 127.536 18.5175 127.237 18.2649C126.938 18.0123 126.494 17.886 125.906 17.886H124.315V20.7632H125.906Z" fill="#C7CBDF"/>
<path d="M147.107 23.3175V27.5H144.488V25.5211H138.007V27.5H135.374V23.3175H135.736C136.334 23.3082 136.753 22.9105 136.995 22.1246C137.245 21.3386 137.4 20.2064 137.457 18.7281L137.573 15.6965H145.732V23.3175H147.107ZM139.96 18.9667C139.922 20.0146 139.835 20.9035 139.7 21.6333C139.565 22.3632 139.357 22.9246 139.078 23.3175H142.911V17.9H140.004L139.96 18.9667Z" fill="#C7CBDF"/>
<path d="M153.453 25.7175C152.382 25.7175 151.418 25.4977 150.56 25.0579C149.711 24.6181 149.041 24.0099 148.549 23.2333C148.066 22.4567 147.825 21.5819 147.825 20.6088C147.825 19.6357 148.066 18.7608 148.549 17.9842C149.041 17.2076 149.711 16.5994 150.56 16.1596C151.418 15.7199 152.382 15.5 153.453 15.5C154.523 15.5 155.483 15.7199 156.332 16.1596C157.19 16.5994 157.86 17.2076 158.343 17.9842C158.834 18.7608 159.08 19.6357 159.08 20.6088C159.08 21.5819 158.834 22.4567 158.343 23.2333C157.86 24.0099 157.19 24.6181 156.332 25.0579C155.483 25.4977 154.523 25.7175 153.453 25.7175ZM153.453 23.4158C153.964 23.4158 154.427 23.2988 154.842 23.0649C155.256 22.831 155.584 22.5035 155.825 22.0825C156.066 21.652 156.187 21.1608 156.187 20.6088C156.187 20.0567 156.066 19.5702 155.825 19.1491C155.584 18.7187 155.256 18.3866 154.842 18.1526C154.427 17.9187 153.964 17.8018 153.453 17.8018C152.942 17.8018 152.479 17.9187 152.064 18.1526C151.649 18.3866 151.321 18.7187 151.08 19.1491C150.839 19.5702 150.719 20.0567 150.719 20.6088C150.719 21.1608 150.839 21.652 151.08 22.0825C151.321 22.5035 151.649 22.831 152.064 23.0649C152.479 23.2988 152.942 23.4158 153.453 23.4158Z" fill="#C7CBDF"/>
<path d="M165.545 25.7175C164.484 25.7175 163.529 25.5023 162.681 25.0719C161.842 24.6322 161.181 24.024 160.699 23.2474C160.216 22.4708 159.975 21.5912 159.975 20.6088C159.975 19.6263 160.216 18.7468 160.699 17.9702C161.181 17.1936 161.842 16.5901 162.681 16.1596C163.529 15.7199 164.484 15.5 165.545 15.5C166.471 15.5 167.305 15.6591 168.048 15.9772C168.79 16.2953 169.408 16.7538 169.899 17.3526L168.077 18.9526C167.421 18.1854 166.625 17.8018 165.69 17.8018C165.14 17.8018 164.648 17.9187 164.214 18.1526C163.79 18.3866 163.457 18.7187 163.216 19.1491C162.984 19.5702 162.869 20.0567 162.869 20.6088C162.869 21.1608 162.984 21.652 163.216 22.0825C163.457 22.5035 163.79 22.831 164.214 23.0649C164.648 23.2988 165.14 23.4158 165.69 23.4158C166.625 23.4158 167.421 23.0322 168.077 22.2649L169.899 23.8649C169.408 24.4637 168.79 24.9222 168.048 25.2404C167.305 25.5585 166.471 25.7175 165.545 25.7175Z" fill="#C7CBDF"/>
<path d="M179.268 17.9H176.172V25.5211H173.351V17.9H170.241V15.6965H179.268V17.9Z" fill="#C7CBDF"/>
<path d="M187.067 23.6123H182.785L181.989 25.5211H179.067L183.537 15.6965H186.358L190.843 25.5211H187.863L187.067 23.6123ZM186.228 21.5632L184.926 18.4193L183.624 21.5632H186.228Z" fill="#C7CBDF"/>
<path d="M199.381 20.3842C199.979 20.5713 200.432 20.8614 200.741 21.2544C201.059 21.6474 201.218 22.1339 201.218 22.714C201.218 23.5842 200.866 24.2719 200.162 24.7772C199.468 25.2731 198.479 25.5211 197.197 25.5211H192.003V15.6965H196.922C198.137 15.6965 199.077 15.9211 199.743 16.3702C200.418 16.8099 200.755 17.4368 200.755 18.2509C200.755 18.7281 200.635 19.1491 200.394 19.514C200.162 19.8789 199.825 20.169 199.381 20.3842ZM194.824 19.6263H196.647C197.457 19.6263 197.862 19.3035 197.862 18.6579C197.862 18.0123 197.457 17.6895 196.647 17.6895H194.824V19.6263ZM197.081 23.5281C197.91 23.5281 198.325 23.1866 198.325 22.5035C198.325 21.8392 197.91 21.507 197.081 21.507H194.824V23.5281H197.081Z" fill="#C7CBDF"/>
<path d="M206.862 21.7596H205.56V25.5211H202.71V15.6965H205.56V19.514H206.935L209.351 15.6965H212.36L209.191 20.4404L212.389 25.5211H209.163L206.862 21.7596Z" fill="#C7CBDF"/>
<path d="M213.307 15.6965H216.128V21.4649L220.309 15.6965H223V25.5211H220.179V19.7667L216.013 25.5211H213.307V15.6965Z" fill="#C7CBDF"/>
<path d="M73.5872 40.432L73.5755 34.653L70.6178 39.4688H70.08L67.1223 34.687V40.432H66V32.5H66.9586L70.3723 38.0751L73.7392 32.5H74.6978L74.7095 40.432H73.5872Z" fill="#C7CBDF"/>
<path d="M79.258 34.3697C80.1153 34.3697 80.77 34.5737 81.222 34.9816C81.6819 35.3895 81.9118 35.9976 81.9118 36.8059V40.432H80.8479V39.6388C80.6609 39.9183 80.392 40.1336 80.0413 40.2847C79.6984 40.4282 79.2892 40.5 78.8138 40.5C78.1201 40.5 77.5629 40.3376 77.142 40.0127C76.729 39.6879 76.5224 39.2611 76.5224 38.7323C76.5224 38.2035 76.7212 37.7805 77.1186 37.4632C77.5161 37.1383 78.1474 36.9759 79.0125 36.9759H80.7895V36.7606C80.7895 36.2923 80.6492 35.9334 80.3686 35.6841C80.088 35.4348 79.675 35.3102 79.1294 35.3102C78.7631 35.3102 78.4046 35.3706 78.0539 35.4915C77.7032 35.6048 77.407 35.7597 77.1654 35.9561L76.6978 35.1402C77.0173 34.8909 77.3992 34.7021 77.8435 34.5737C78.2877 34.4377 78.7592 34.3697 79.258 34.3697ZM79.0008 39.6615C79.4295 39.6615 79.7997 39.5708 80.1114 39.3895C80.4232 39.2007 80.6492 38.9363 80.7895 38.5963V37.7578H79.0593C78.1084 37.7578 77.633 38.0675 77.633 38.687C77.633 38.9891 77.7538 39.2271 77.9954 39.4009C78.237 39.5746 78.5722 39.6615 79.0008 39.6615Z" fill="#C7CBDF"/>
<path d="M85.7656 40.5C85.259 40.5 84.7719 40.4358 84.3043 40.3074C83.8367 40.1714 83.4704 40.0014 83.2054 39.7975L83.673 38.9363C83.9458 39.1251 84.277 39.2762 84.6667 39.3895C85.0564 39.5028 85.45 39.5595 85.8475 39.5595C86.8295 39.5595 87.3205 39.2875 87.3205 38.7436C87.3205 38.5623 87.2542 38.4188 87.1217 38.313C86.9893 38.2073 86.8217 38.1317 86.6191 38.0864C86.4242 38.0335 86.1436 37.9769 85.7773 37.9164C85.2785 37.8409 84.8694 37.754 84.5498 37.6558C84.2381 37.5576 83.9692 37.3914 83.7432 37.1572C83.5172 36.923 83.4041 36.5944 83.4041 36.1714C83.4041 35.6275 83.638 35.1931 84.1056 34.8683C84.5732 34.5359 85.2006 34.3697 85.9878 34.3697C86.4008 34.3697 86.8139 34.4188 87.227 34.517C87.64 34.6152 87.9791 34.7474 88.244 34.9136L87.7647 35.7748C87.2581 35.4575 86.6619 35.2989 85.9761 35.2989C85.5007 35.2989 85.1382 35.3744 84.8888 35.5255C84.6394 35.6766 84.5147 35.8768 84.5147 36.1261C84.5147 36.3225 84.5849 36.4773 84.7252 36.5907C84.8655 36.704 85.0369 36.7871 85.2396 36.8399C85.45 36.8928 85.7423 36.9533 86.1164 37.0212C86.6152 37.1043 87.0165 37.195 87.3205 37.2932C87.6322 37.3839 87.8972 37.5425 88.1154 37.7691C88.3337 37.9958 88.4428 38.313 88.4428 38.721C88.4428 39.2649 88.2012 39.6992 87.718 40.0241C87.2425 40.3414 86.5918 40.5 85.7656 40.5Z" fill="#C7CBDF"/>
<path d="M90.009 32.5H93.4578C94.3229 32.5 95.0905 32.6662 95.7608 32.9986C96.4311 33.331 96.9493 33.7993 97.3156 34.4037C97.6897 35.0005 97.8768 35.6879 97.8768 36.466C97.8768 37.2441 97.6897 37.9353 97.3156 38.5397C96.9493 39.1365 96.4311 39.601 95.7608 39.9334C95.0905 40.2658 94.3229 40.432 93.4578 40.432H90.009V32.5ZM93.3876 39.4462C94.0501 39.4462 94.6307 39.3215 95.1295 39.0722C95.6361 38.8229 96.0258 38.4754 96.2986 38.0297C96.5713 37.5765 96.7077 37.0552 96.7077 36.466C96.7077 35.8768 96.5713 35.3593 96.2986 34.9136C96.0258 34.4603 95.6361 34.1091 95.1295 33.8598C94.6307 33.6105 94.0501 33.4858 93.3876 33.4858H91.1781V39.4462H93.3876Z" fill="#C7CBDF"/>
<path d="M102.158 40.5C101.542 40.5 100.988 40.3678 100.497 40.1034C100.006 39.839 99.6207 39.4764 99.3401 39.0156C99.0673 38.5472 98.931 38.0184 98.931 37.4292C98.931 36.8399 99.0673 36.3149 99.3401 35.8541C99.6207 35.3857 100.006 35.0231 100.497 34.7663C100.988 34.5019 101.542 34.3697 102.158 34.3697C102.773 34.3697 103.323 34.5019 103.806 34.7663C104.297 35.0231 104.679 35.3857 104.952 35.8541C105.232 36.3149 105.372 36.8399 105.372 37.4292C105.372 38.0184 105.232 38.5472 104.952 39.0156C104.679 39.4764 104.297 39.839 103.806 40.1034C103.323 40.3678 102.773 40.5 102.158 40.5ZM102.158 39.5482C102.555 39.5482 102.91 39.4613 103.221 39.2875C103.541 39.1062 103.79 38.8569 103.97 38.5397C104.149 38.2148 104.238 37.8447 104.238 37.4292C104.238 37.0137 104.149 36.6473 103.97 36.33C103.79 36.0052 103.541 35.7559 103.221 35.5822C102.91 35.4084 102.555 35.3215 102.158 35.3215C101.76 35.3215 101.402 35.4084 101.082 35.5822C100.77 35.7559 100.521 36.0052 100.334 36.33C100.155 36.6473 100.065 37.0137 100.065 37.4292C100.065 37.8447 100.155 38.2148 100.334 38.5397C100.521 38.8569 100.77 39.1062 101.082 39.2875C101.402 39.4613 101.76 39.5482 102.158 39.5482Z" fill="#C7CBDF"/>
<path d="M108.702 40.5C108.195 40.5 107.708 40.4358 107.24 40.3074C106.773 40.1714 106.406 40.0014 106.141 39.7975L106.609 38.9363C106.882 39.1251 107.213 39.2762 107.603 39.3895C107.992 39.5028 108.386 39.5595 108.783 39.5595C109.765 39.5595 110.256 39.2875 110.256 38.7436C110.256 38.5623 110.19 38.4188 110.058 38.313C109.925 38.2073 109.758 38.1317 109.555 38.0864C109.36 38.0335 109.08 37.9769 108.713 37.9164C108.214 37.8409 107.805 37.754 107.486 37.6558C107.174 37.5576 106.905 37.3914 106.679 37.1572C106.453 36.923 106.34 36.5944 106.34 36.1714C106.34 35.6275 106.574 35.1931 107.041 34.8683C107.509 34.5359 108.136 34.3697 108.924 34.3697C109.337 34.3697 109.75 34.4188 110.163 34.517C110.576 34.6152 110.915 34.7474 111.18 34.9136L110.701 35.7748C110.194 35.4575 109.598 35.2989 108.912 35.2989C108.437 35.2989 108.074 35.3744 107.825 35.5255C107.575 35.6766 107.451 35.8768 107.451 36.1261C107.451 36.3225 107.521 36.4773 107.661 36.5907C107.801 36.704 107.973 36.7871 108.175 36.8399C108.386 36.8928 108.678 36.9533 109.052 37.0212C109.551 37.1043 109.952 37.195 110.256 37.2932C110.568 37.3839 110.833 37.5425 111.051 37.7691C111.27 37.9958 111.379 38.313 111.379 38.721C111.379 39.2649 111.137 39.6992 110.654 40.0241C110.178 40.3414 109.528 40.5 108.702 40.5Z" fill="#C7CBDF"/>
<path d="M113.05 40.5C112.832 40.5 112.645 40.4282 112.489 40.2847C112.333 40.1336 112.255 39.9448 112.255 39.7181C112.255 39.4991 112.333 39.3178 112.489 39.1742C112.645 39.0231 112.832 38.9476 113.05 38.9476C113.268 38.9476 113.452 39.0194 113.6 39.1629C113.748 39.3064 113.822 39.4915 113.822 39.7181C113.822 39.9448 113.744 40.1336 113.588 40.2847C113.44 40.4282 113.261 40.5 113.05 40.5Z" fill="#C7CBDF"/>
<path d="M116.505 35.4348C116.7 35.0873 116.989 34.8229 117.371 34.6416C117.752 34.4603 118.216 34.3697 118.762 34.3697V35.4235C118.699 35.416 118.614 35.4122 118.505 35.4122C117.897 35.4122 117.417 35.5897 117.067 35.9448C116.724 36.2923 116.552 36.7908 116.552 37.4405V40.432H115.43V34.4263H116.505V35.4348Z" fill="#C7CBDF"/>
<path d="M126 34.4263V40.432H124.936V39.5255C124.71 39.8352 124.41 40.077 124.036 40.2507C123.67 40.4169 123.268 40.5 122.832 40.5C122.006 40.5 121.355 40.2809 120.88 39.8428C120.404 39.3971 120.166 38.7436 120.166 37.8824V34.4263H121.289V37.7578C121.289 38.3395 121.433 38.7814 121.721 39.0836C122.01 39.3782 122.423 39.5255 122.96 39.5255C123.553 39.5255 124.02 39.3517 124.363 39.0043C124.706 38.6568 124.878 38.1657 124.878 37.5312V34.4263H126Z" fill="#C7CBDF"/>
</svg>
